<svg width="197" height="185" viewBox="0 0 197 185" fill="none" xmlns="http://www.w3.org/2000/svg">
<g clip-path="url(#clip0_817_2659)">
<path d="M116.192 129.864C154.492 102.1 156.638 63.2266 154.958 45.8047C167.748 55.7003 191.589 81.8396 184.775 107.269C174.349 146.181 133.532 139.875 109.305 134.727C111.502 133.276 113.666 131.696 116.192 129.864Z" fill="url(#paint0_linear_817_2659)"/>
<path d="M184.775 107.266C174.349 146.178 133.532 139.871 109.305 134.724C129.343 130.622 171.592 113.175 180.275 76.1992C185.108 85.85 187.628 96.6204 184.775 107.266Z" fill="url(#paint1_linear_817_2659)"/>
<path d="M132.044 97.3394C117.475 52.3347 81.1663 38.2811 64.0781 34.4951C77.4416 25.3894 109.669 10.7928 131.748 25.1312C165.534 47.0718 146.923 83.9422 134.54 105.393C133.84 102.854 133.005 100.309 132.044 97.3394Z" fill="url(#paint2_linear_817_2659)"/>
<path d="M131.749 25.1312C165.535 47.0719 146.925 83.9422 134.542 105.393C136.834 85.0674 133.296 39.4955 100.812 19.811C111.484 18.1971 122.506 19.1285 131.749 25.1312Z" fill="url(#paint3_linear_817_2659)"/>
<path d="M105.868 73.05C58.5633 72.9989 33.9779 103.187 25.0966 118.269C20.5661 102.746 16.6426 67.5853 37.1021 51.0175C68.4092 25.6655 97.7239 54.7593 114.298 73.1643C111.667 73.0462 108.989 73.0533 105.868 73.05Z" fill="url(#paint4_linear_817_2659)"/>
<path d="M37.0966 51.0136C68.4038 25.6616 97.7184 54.7554 114.293 73.1603C95.6702 64.7 51.2356 53.982 22.4766 78.7926C24.2395 68.1443 28.5313 57.9496 37.0966 51.0136Z" fill="url(#paint5_linear_817_2659)"/>
<path d="M81.1986 124.966C119.438 152.812 157.072 142.84 173.122 135.859C167.663 151.081 150.171 181.832 123.88 183.21C83.6512 185.318 77.036 144.55 74.4453 119.918C76.5042 121.56 78.6757 123.129 81.1986 124.966Z" fill="url(#paint6_linear_817_2659)"/>
<path d="M123.88 183.214C83.6512 185.322 77.036 144.554 74.4453 119.922C84.5383 137.712 114.187 172.502 152.036 169.333C144.351 176.912 134.887 182.637 123.88 183.214Z" fill="url(#paint7_linear_817_2659)"/>
<path d="M74.0662 90.2092C59.3999 135.183 80.5132 167.894 92.1125 181.001C75.949 180.513 41.297 173.379 31.8625 148.801C17.4257 111.192 54.1543 92.3022 76.7801 82.2266C75.8549 84.6921 75.0339 87.2421 74.0662 90.2092Z" fill="url(#paint8_linear_817_2659)"/>
<path d="M31.8625 148.8C17.4257 111.191 54.1543 92.3022 76.7802 82.2266C62.9793 97.3232 39.0548 136.271 53.7641 171.289C44.1817 166.322 35.8122 159.09 31.8625 148.8Z" fill="url(#paint9_linear_817_2659)"/>
<path d="M164.891 39.1404C169.49 39.1404 173.219 35.4118 173.219 30.8124C173.219 26.2129 169.49 22.4844 164.891 22.4844C160.291 22.4844 156.562 26.2129 156.562 30.8124C156.562 35.4118 160.291 39.1404 164.891 39.1404Z" fill="#915EA0"/>
<path d="M179.05 18.3224C183.189 18.3224 186.545 14.9667 186.545 10.8272C186.545 6.68775 183.189 3.33203 179.05 3.33203C174.91 3.33203 171.555 6.68775 171.555 10.8272C171.555 14.9667 174.91 18.3224 179.05 18.3224Z" fill="#7ABD60"/>
<path d="M140.747 24.1498C143.506 24.1498 145.744 21.9127 145.744 19.153C145.744 16.3934 143.506 14.1562 140.747 14.1562C137.987 14.1562 135.75 16.3934 135.75 19.153C135.75 21.9127 137.987 24.1498 140.747 24.1498Z" fill="#3AB2DD"/>
<path d="M152.403 9.9936C155.163 9.9936 157.4 7.75646 157.4 4.9968C157.4 2.23714 155.163 0 152.403 0C149.643 0 147.406 2.23714 147.406 4.9968C147.406 7.75646 149.643 9.9936 152.403 9.9936Z" fill="#925EA0"/>
<path d="M179.051 54.1303C181.811 54.1303 184.048 51.8932 184.048 49.1335C184.048 46.3739 181.811 44.1367 179.051 44.1367C176.292 44.1367 174.055 46.3739 174.055 49.1335C174.055 51.8932 176.292 54.1303 179.051 54.1303Z" fill="#EF4F91"/>
<path d="M194.042 34.1429C195.882 34.1429 197.373 32.6514 197.373 30.8117C197.373 28.9719 195.882 27.4805 194.042 27.4805C192.202 27.4805 190.711 28.9719 190.711 30.8117C190.711 32.6514 192.202 34.1429 194.042 34.1429Z" fill="#F28046"/>
<path d="M14.1593 126.584C15.9991 126.584 17.4905 125.093 17.4905 123.253C17.4905 121.413 15.9991 119.922 14.1593 119.922C12.3196 119.922 10.8281 121.413 10.8281 123.253C10.8281 125.093 12.3196 126.584 14.1593 126.584Z" fill="#48AC66"/>
<path d="M9.16394 118.258C13.7634 118.258 17.4919 114.529 17.4919 109.93C17.4919 105.33 13.7634 101.602 9.16394 101.602C4.56451 101.602 0.835938 105.33 0.835938 109.93C0.835938 114.529 4.56451 118.258 9.16394 118.258Z" fill="#ED6A99"/>
</g>
<defs>
<linearGradient id="paint0_linear_817_2659" x1="162.396" y1="45.8048" x2="111.595" y2="132.832" gradientUnits="userSpaceOnUse">
<stop stop-color="#915EA0"/>
<stop offset="1" stop-color="#70499A"/>
</linearGradient>
<linearGradient id="paint1_linear_817_2659" x1="179.884" y1="75.783" x2="149.641" y2="148.974" gradientUnits="userSpaceOnUse">
<stop stop-color="#734D99"/>
<stop offset="1" stop-color="#52349C"/>
</linearGradient>
<linearGradient id="paint2_linear_817_2659" x1="75.3683" y1="29.146" x2="135.33" y2="103.265" gradientUnits="userSpaceOnUse">
<stop stop-color="#4C8ECB"/>
<stop offset="1" stop-color="#664C9B"/>
</linearGradient>
<linearGradient id="paint3_linear_817_2659" x1="132.233" y1="24.0258" x2="135.747" y2="101.184" gradientUnits="userSpaceOnUse">
<stop stop-color="#2EB7E5"/>
<stop offset="1" stop-color="#5C6DB2"/>
</linearGradient>
<linearGradient id="paint4_linear_817_2659" x1="109.932" y1="72.8717" x2="20.8223" y2="89.1113" gradientUnits="userSpaceOnUse">
<stop stop-color="#27A47F"/>
<stop offset="1" stop-color="#73BA52"/>
</linearGradient>
<linearGradient id="paint5_linear_817_2659" x1="107.845" y1="68.2878" x2="36.6408" y2="53.2974" gradientUnits="userSpaceOnUse">
<stop stop-color="#64AB83"/>
<stop offset="1" stop-color="#91C549"/>
</linearGradient>
<linearGradient id="paint6_linear_817_2659" x1="76.6167" y1="120.755" x2="161.562" y2="160.729" gradientUnits="userSpaceOnUse">
<stop stop-color="#EE5993"/>
<stop offset="1" stop-color="#F086AC"/>
</linearGradient>
<linearGradient id="paint7_linear_817_2659" x1="77.0326" y1="123.673" x2="124.139" y2="184.392" gradientUnits="userSpaceOnUse">
<stop stop-color="#EF3781"/>
<stop offset="1" stop-color="#F36068"/>
</linearGradient>
<linearGradient id="paint8_linear_817_2659" x1="74.9501" y1="87.0263" x2="70.7861" y2="180.3" gradientUnits="userSpaceOnUse">
<stop stop-color="#F4704A"/>
<stop offset="1" stop-color="#F9A63E"/>
</linearGradient>
<linearGradient id="paint9_linear_817_2659" x1="61.6261" y1="85.3602" x2="34.5602" y2="150.735" gradientUnits="userSpaceOnUse">
<stop stop-color="#E65969"/>
<stop offset="1" stop-color="#F57A51"/>
</linearGradient>
<clipPath id="clip0_817_2659">
<rect width="197" height="185" fill="white"/>
</clipPath>
</defs>
</svg>
