<svg width="648" height="200" viewBox="0 0 648 200" fill="none" xmlns="http://www.w3.org/2000/svg">
<path d="M320.921 166.168C320.376 166.168 320.103 165.86 320.103 165.243V140.504C320.103 140.006 320.328 139.756 320.779 139.756H329.5C329.785 139.756 329.986 139.792 330.105 139.863C330.224 139.934 330.33 140.1 330.425 140.361L334.91 153.389C334.981 153.579 335.065 153.674 335.159 153.674C335.254 153.65 335.337 153.555 335.409 153.389L339.573 140.682C339.763 140.065 340.06 139.756 340.463 139.756H349.469C349.872 139.756 350.074 139.982 350.074 140.433V165.243C350.074 165.86 349.73 166.168 349.042 166.168H343.738C343.406 166.168 343.18 166.109 343.062 165.99C342.943 165.848 342.884 165.634 342.884 165.349V148.548C342.884 148.382 342.836 148.299 342.741 148.299C342.646 148.299 342.563 148.394 342.492 148.584L336.868 165.563C336.702 165.966 336.429 166.168 336.049 166.168H332.703C332.276 166.168 331.991 165.966 331.849 165.563L326.225 148.833C326.154 148.596 326.071 148.489 325.976 148.513C325.905 148.537 325.869 148.655 325.869 148.869V165.456C325.869 165.741 325.822 165.931 325.727 166.026C325.632 166.121 325.43 166.168 325.122 166.168H320.921ZM353.842 166.168C353.605 166.168 353.427 166.061 353.308 165.848C353.213 165.61 353.225 165.326 353.344 164.993L362.1 140.504C362.195 140.243 362.314 140.053 362.456 139.934C362.599 139.816 362.812 139.756 363.097 139.756H369.291C369.884 139.756 370.287 140.053 370.501 140.646L379.15 165.065C379.222 165.278 379.222 165.515 379.15 165.776C379.079 166.038 378.913 166.168 378.652 166.168H372.53C372.15 166.168 371.901 165.978 371.782 165.599L370.216 160.971C370.169 160.876 370.109 160.793 370.038 160.722C369.991 160.627 369.872 160.58 369.682 160.58H361.602C361.341 160.58 361.175 160.71 361.104 160.971L359.431 165.67C359.383 165.812 359.3 165.931 359.181 166.026C359.063 166.121 358.885 166.168 358.648 166.168H353.842ZM368.08 155.169C368.413 155.169 368.519 154.944 368.401 154.493L365.838 147.338C365.79 147.219 365.719 147.16 365.624 147.16C365.529 147.16 365.458 147.219 365.411 147.338L362.812 154.493C362.646 154.944 362.753 155.169 363.133 155.169H368.08ZM404.642 165.1C404.761 165.385 404.749 165.634 404.607 165.848C404.488 166.061 404.298 166.168 404.037 166.168H397.95C397.499 166.168 397.203 165.943 397.06 165.492L393.501 155.917C393.358 155.561 393.003 155.383 392.433 155.383H389.977C389.811 155.383 389.692 155.43 389.621 155.525C389.574 155.62 389.55 155.703 389.55 155.774V165.207C389.55 165.848 389.194 166.168 388.482 166.168H383.178C382.87 166.168 382.656 166.109 382.538 165.99C382.419 165.848 382.36 165.634 382.36 165.349V140.504C382.36 140.006 382.561 139.756 382.965 139.756H394.498C397.82 139.756 400.394 140.397 402.222 141.679C404.049 142.96 404.963 144.787 404.963 147.16C404.963 148.323 404.749 149.379 404.322 150.328C403.895 151.277 403.325 152.084 402.613 152.749C401.901 153.389 401.095 153.876 400.193 154.208C399.979 154.303 399.932 154.517 400.05 154.849L404.642 165.1ZM394.035 150.613C395.174 150.613 396.04 150.352 396.633 149.83C397.226 149.284 397.523 148.548 397.523 147.623C397.523 146.603 397.179 145.831 396.491 145.309C395.826 144.763 395.008 144.491 394.035 144.491H390.297C389.799 144.491 389.55 144.704 389.55 145.131V149.901C389.55 150.376 389.728 150.613 390.084 150.613H394.035ZM432.138 165.171C432.28 165.432 432.316 165.67 432.244 165.883C432.197 166.073 432.019 166.168 431.71 166.168H425.517C424.947 166.168 424.568 165.954 424.378 165.527L419.359 155.027C419.169 154.742 418.92 154.789 418.611 155.169L415.799 158.693C415.657 158.859 415.586 159.108 415.586 159.441V165.243C415.586 165.86 415.23 166.168 414.518 166.168H409.25C408.918 166.168 408.692 166.109 408.573 165.99C408.455 165.848 408.396 165.634 408.396 165.349V140.504C408.396 140.006 408.597 139.756 409.001 139.756H414.981C415.384 139.756 415.586 139.982 415.586 140.433V150.221C415.586 150.482 415.633 150.613 415.728 150.613C415.823 150.613 415.942 150.53 416.084 150.364L423.595 140.433C423.761 140.195 423.927 140.029 424.093 139.934C424.283 139.816 424.579 139.756 424.983 139.756H429.824C430.18 139.756 430.429 139.851 430.571 140.041C430.714 140.231 430.678 140.445 430.465 140.682L424.164 148.228C423.951 148.537 423.927 148.881 424.093 149.26L432.138 165.171ZM435.405 140.504C435.405 140.006 435.607 139.756 436.01 139.756H454.626C455.006 139.756 455.196 139.982 455.196 140.433V144.135C455.196 144.704 454.923 144.989 454.377 144.989H443.343C442.844 144.989 442.595 145.202 442.595 145.63V149.652C442.595 150.103 442.785 150.328 443.165 150.328H450.106C450.557 150.328 450.782 150.542 450.782 150.969V154.92C450.782 155.062 450.734 155.193 450.64 155.311C450.568 155.406 450.426 155.454 450.212 155.454H443.129C442.773 155.454 442.595 155.62 442.595 155.952V160.473C442.595 160.781 442.726 160.936 442.987 160.936H454.84C455.314 160.936 455.552 161.137 455.552 161.541V165.456C455.552 165.646 455.492 165.812 455.374 165.954C455.255 166.097 455.065 166.168 454.804 166.168H436.259C435.69 166.168 435.405 165.895 435.405 165.349V140.504ZM457.94 140.504C457.94 140.29 457.999 140.112 458.118 139.97C458.236 139.828 458.438 139.756 458.723 139.756H479.617C479.878 139.756 480.068 139.828 480.187 139.97C480.329 140.112 480.4 140.29 480.4 140.504V144.277C480.4 144.68 480.163 144.882 479.688 144.882H473.21C472.925 144.882 472.783 145.001 472.783 145.238V165.456C472.783 165.931 472.581 166.168 472.178 166.168H466.198C465.794 166.168 465.593 165.943 465.593 165.492V145.38C465.593 145.048 465.474 144.882 465.237 144.882H458.687C458.189 144.882 457.94 144.68 457.94 144.277V140.504ZM490.273 139.756C490.676 139.756 490.878 139.982 490.878 140.433V165.207C490.878 165.563 490.783 165.812 490.593 165.954C490.427 166.097 490.166 166.168 489.81 166.168H484.542C484.21 166.168 483.984 166.109 483.866 165.99C483.747 165.848 483.688 165.634 483.688 165.349V140.504C483.688 140.006 483.889 139.756 484.293 139.756H490.273ZM517.405 139.756C517.761 139.756 517.939 139.946 517.939 140.326V165.563C517.939 165.753 517.868 165.907 517.725 166.026C517.583 166.121 517.405 166.168 517.192 166.168H512.885C512.718 166.168 512.564 166.144 512.422 166.097C512.303 166.049 512.149 165.907 511.959 165.67L501.423 151.147C501.328 151.004 501.245 150.945 501.174 150.969C501.102 150.993 501.067 151.064 501.067 151.182V165.456C501.091 165.931 500.83 166.168 500.284 166.168H495.977C495.455 166.168 495.194 165.943 495.194 165.492V140.504C495.194 140.006 495.431 139.756 495.906 139.756H500.996C501.28 139.756 501.494 139.792 501.636 139.863C501.779 139.934 501.933 140.089 502.099 140.326L511.567 153.674C511.734 153.888 511.864 153.983 511.959 153.959C512.078 153.935 512.137 153.793 512.137 153.532V140.433C512.137 139.982 512.374 139.756 512.849 139.756H517.405ZM533.557 166.524C531.113 166.524 528.965 165.966 527.114 164.851C525.287 163.712 523.875 162.134 522.878 160.117C521.882 158.076 521.383 155.727 521.383 153.069C521.383 150.293 521.905 147.884 522.95 145.843C524.017 143.802 525.501 142.224 527.399 141.109C529.297 139.97 531.481 139.4 533.949 139.4C536.013 139.4 537.817 139.78 539.359 140.539C540.901 141.275 542.147 142.236 543.097 143.423C544.069 144.585 544.686 145.796 544.947 147.053C545.042 147.504 545.054 147.801 544.983 147.943C544.912 148.062 544.746 148.145 544.485 148.192L539.074 149.011C538.813 149.011 538.647 148.964 538.576 148.869C538.505 148.75 538.445 148.584 538.398 148.37C538.279 147.659 538.03 147.006 537.65 146.413C537.271 145.796 536.761 145.297 536.12 144.918C535.479 144.538 534.708 144.348 533.806 144.348C532.786 144.348 531.908 144.633 531.172 145.202C530.436 145.748 529.867 146.638 529.464 147.872C529.084 149.106 528.894 150.767 528.894 152.855C528.894 155.062 529.108 156.795 529.535 158.052C529.962 159.31 530.555 160.212 531.315 160.758C532.098 161.28 533.011 161.541 534.055 161.541C534.672 161.541 535.218 161.458 535.693 161.291C536.191 161.125 536.618 160.9 536.974 160.615C537.354 160.307 537.662 159.963 537.9 159.583C538.161 159.179 538.362 158.752 538.505 158.301L538.576 157.625C538.718 157.245 538.612 157.056 538.256 157.056H534.447C534.233 157.056 534.067 157.008 533.949 156.913C533.854 156.818 533.806 156.629 533.806 156.344V153.283C533.806 152.927 534.032 152.749 534.482 152.749H544.236C544.615 152.749 544.9 152.844 545.09 153.033C545.303 153.199 545.41 153.437 545.41 153.745V165.599C545.41 165.765 545.363 165.907 545.268 166.026C545.173 166.121 545.031 166.168 544.841 166.168H543.595C543.381 166.168 543.191 166.121 543.025 166.026C542.859 165.931 542.705 165.765 542.563 165.527L541.317 163.249C541.269 163.154 541.21 163.107 541.139 163.107C541.091 163.107 541.032 163.166 540.961 163.285C540.51 163.759 539.976 164.246 539.359 164.744C538.766 165.243 537.995 165.67 537.045 166.026C536.12 166.358 534.957 166.524 533.557 166.524Z" fill="black"/>
<path d="M220.392 121.168C218.797 121.168 218 120.267 218 118.464V46.184C218 44.728 218.659 44 219.976 44H245.456C246.288 44 246.877 44.104 247.224 44.312C247.571 44.52 247.883 45.0053 248.16 45.768L259.741 76.836C259.949 77.3907 260.191 77.668 260.469 77.668C260.746 77.5987 260.989 77.3214 261.197 76.836L274.888 46.704C275.443 44.9013 276.309 44 277.488 44H303.8C304.979 44 305.568 44.6587 305.568 45.976V118.464C305.568 120.267 304.563 121.168 302.552 121.168H287.056C286.085 121.168 285.427 120.995 285.08 120.648C284.733 120.232 284.56 119.608 284.56 118.776V69.688C284.56 69.2027 284.421 68.96 284.144 68.96C283.867 68.96 283.624 69.2373 283.416 69.792L267.26 101.438C266.775 102.617 265.978 103.206 264.868 103.206H255.092C253.844 103.206 253.012 102.617 252.596 101.438L235.888 70.52C235.68 69.8267 235.437 69.5147 235.16 69.584C234.952 69.6533 234.848 70 234.848 70.624V119.088C234.848 119.92 234.709 120.475 234.432 120.752C234.155 121.029 233.565 121.168 232.664 121.168H220.392Z" fill="black"/>
<path d="M335.402 118.36C335.402 119.4 335.16 120.128 334.674 120.544C334.189 120.96 333.392 121.168 332.282 121.168H319.386C318.416 121.168 317.757 120.995 317.41 120.648C317.064 120.232 316.89 119.608 316.89 118.776V68.232C316.89 66.776 317.514 66.048 318.762 66.048H333.634C334.813 66.048 335.402 66.7067 335.402 68.024V118.36Z" fill="black"/>
<path d="M363.941 118.36C363.941 119.4 363.699 120.128 363.213 120.544C362.728 120.96 361.931 121.168 360.821 121.168H347.925C346.955 121.168 346.296 120.995 345.949 120.648C345.603 120.232 345.429 119.608 345.429 118.776V68.232C345.429 66.776 346.053 66.048 347.301 66.048H362.173C363.352 66.048 363.941 66.7067 363.941 68.024V118.36Z" fill="black"/>
<path d="M392.584 118.36C392.584 119.4 392.307 120.128 391.752 120.544C391.267 120.96 390.504 121.168 389.464 121.168H376.464C374.731 121.168 373.864 120.371 373.864 118.776L374.28 53.168C374.28 50.168 377.469 44 389.469 44H390.816C391.995 44 392.584 44.6587 392.584 45.976V118.36Z" fill="black"/>
<path d="M421.225 118.36C421.225 119.4 420.948 120.128 420.393 120.544C419.908 120.96 419.145 121.168 418.105 121.168H405.105C403.372 121.168 402.505 120.371 402.505 118.776L402.921 53.168C402.921 50.168 405.469 44 418.469 44H419.457C420.636 44 421.225 44.6587 421.225 45.976V118.36Z" fill="black"/>
<path d="M449.762 118.36C449.762 119.4 449.519 120.128 449.034 120.544C448.548 120.96 447.751 121.168 446.642 121.168H433.746C432.775 121.168 432.116 120.995 431.77 120.648C431.423 120.232 431.25 119.608 431.25 118.776V68.232C431.25 66.776 431.874 66.048 433.122 66.048H447.994C449.172 66.048 449.762 66.7067 449.762 68.024V118.36Z" fill="black"/>
<path d="M505.283 122.208C499.667 122.208 494.71 120.995 490.411 118.568C486.182 116.141 482.854 112.813 480.427 108.584C478.07 104.285 476.891 99.3973 476.891 93.92C476.891 88.096 478.139 83.0347 480.635 78.736C483.131 74.368 486.529 71.0053 490.827 68.648C495.126 66.2213 499.979 65.008 505.387 65.008C511.073 65.008 516.03 66.256 520.259 68.752C524.558 71.248 527.886 74.68 530.243 79.048C532.67 83.3467 533.883 88.304 533.883 93.92C533.883 99.3973 532.67 104.285 530.243 108.584C527.817 112.813 524.454 116.141 520.155 118.568C515.926 120.995 510.969 122.208 505.283 122.208ZM505.387 110.144C507.606 110.144 509.443 109.555 510.899 108.376C512.355 107.197 513.43 105.36 514.123 102.864C514.817 100.368 515.163 97.248 515.163 93.504C515.163 89.6907 514.782 86.536 514.019 84.04C513.326 81.544 512.251 79.7067 510.795 78.528C509.409 77.28 507.606 76.656 505.387 76.656C503.238 76.656 501.401 77.28 499.875 78.528C498.419 79.7067 497.345 81.544 496.651 84.04C495.958 86.536 495.611 89.6907 495.611 93.504C495.611 97.3173 495.958 100.472 496.651 102.968C497.345 105.395 498.419 107.197 499.875 108.376C501.401 109.555 503.238 110.144 505.387 110.144Z" fill="black"/>
<path d="M544.035 121.168C543.064 121.168 542.405 120.995 542.059 120.648C541.712 120.232 541.539 119.608 541.539 118.776V68.232C541.539 66.776 542.128 66.048 543.307 66.048H557.659C558.768 66.048 559.323 66.672 559.323 67.92V73.952C559.323 74.4373 559.496 74.7493 559.843 74.888C560.259 74.9573 560.64 74.7493 560.987 74.264C562.235 72.4613 563.725 70.8667 565.459 69.48C567.192 68.0933 569.029 67.0187 570.971 66.256C572.912 65.424 574.68 65.008 576.275 65.008C578.84 65.008 580.123 65.6667 580.123 66.984V80.92C580.123 82.2373 579.499 82.7573 578.251 82.48C576.864 82.1333 575.373 81.8907 573.779 81.752C572.253 81.544 571.04 81.44 570.139 81.44C568.891 81.44 567.677 81.6827 566.499 82.168C565.32 82.584 564.211 83.1733 563.171 83.936C562.2 84.6987 561.437 85.5653 560.883 86.536C560.328 87.5067 560.051 88.4773 560.051 89.448V118.464C560.051 120.267 559.011 121.168 556.931 121.168H544.035Z" fill="black"/>
<path d="M645.269 63.136C645.824 63.136 646.309 63.344 646.725 63.76C647.141 64.1067 647.349 64.7307 647.349 65.632V73.848C647.349 74.9573 647.106 75.72 646.621 76.136C646.136 76.552 645.512 76.656 644.749 76.448C643.986 76.24 643.154 76.1013 642.253 76.032C641.421 75.9627 640.658 75.9627 639.965 76.032C638.162 76.1013 637.469 76.8987 637.885 78.424C638.093 78.9093 638.266 79.4987 638.405 80.192C638.613 80.816 638.717 81.544 638.717 82.376C638.717 85.496 637.746 88.3387 635.805 90.904C633.864 93.4693 630.952 95.5493 627.069 97.144C623.186 98.6693 618.402 99.432 612.717 99.432C610.221 99.432 608.176 99.5707 606.581 99.848C605.056 100.125 603.946 100.507 603.253 100.992C602.629 101.408 602.317 101.928 602.317 102.552C602.317 103.384 602.733 103.973 603.565 104.32C604.466 104.597 605.853 104.805 607.725 104.944L623.117 105.88C630.536 106.365 635.944 107.96 639.341 110.664C642.808 113.368 644.541 116.869 644.541 121.168C644.541 126.437 641.941 130.771 636.741 134.168C631.61 137.635 624.018 139.368 613.965 139.368C603.426 139.368 595.557 138.293 590.357 136.144C585.157 133.995 582.557 130.701 582.557 126.264C582.557 123.907 583.528 122.035 585.469 120.648C587.41 119.261 589.802 118.117 592.645 117.216C593.546 116.939 593.546 116.557 592.645 116.072C590.912 115.24 589.386 114.2 588.069 112.952C586.821 111.635 586.197 109.971 586.197 107.96C586.197 106.435 586.682 105.048 587.653 103.8C588.693 102.552 590.01 101.443 591.605 100.472C593.269 99.432 595.037 98.5307 596.909 97.768C597.256 97.6293 597.498 97.456 597.637 97.248C597.845 97.04 597.672 96.7973 597.117 96.52C593.789 95.064 591.224 93.1573 589.421 90.8C587.618 88.4427 586.717 85.6693 586.717 82.48C586.717 77.3493 589.005 73.1893 593.581 70C598.157 66.8107 604.917 65.216 613.861 65.216C617.744 65.216 621.106 65.6667 623.949 66.568C626.861 67.4 629.184 68.5093 630.917 69.896C631.472 70.312 632.026 70.4853 632.581 70.416C633.136 70.3467 633.586 70.104 633.933 69.688C634.904 68.44 636.048 67.3307 637.365 66.36C638.752 65.3893 640.138 64.6267 641.525 64.072C642.981 63.448 644.229 63.136 645.269 63.136ZM612.509 90.696C615.837 90.696 618.229 89.8987 619.685 88.304C621.141 86.7093 621.869 84.8373 621.869 82.688C621.869 80.2613 621.141 78.216 619.685 76.552C618.229 74.888 615.837 74.056 612.509 74.056C609.597 74.056 607.309 74.888 605.645 76.552C604.05 78.216 603.253 80.2613 603.253 82.688C603.253 84.9067 604.05 86.8133 605.645 88.408C607.309 89.9333 609.597 90.696 612.509 90.696ZM605.333 119.192C603.946 119.123 602.664 119.296 601.485 119.712C600.306 120.128 599.37 120.683 598.677 121.376C597.984 122.069 597.637 122.901 597.637 123.872C597.637 125.328 598.157 126.576 599.197 127.616C600.306 128.656 602.109 129.453 604.605 130.008C607.101 130.563 610.533 130.84 614.901 130.84C619.338 130.84 622.701 130.251 624.989 129.072C627.277 127.963 628.421 126.472 628.421 124.6C628.421 123.352 627.797 122.277 626.549 121.376C625.301 120.475 623.394 119.989 620.829 119.92L605.333 119.192Z" fill="black"/>
<circle cx="325.469" cy="53.168" r="9" fill="black"/>
<circle cx="354.469" cy="53.168" r="9" fill="black"/>
<circle cx="440" cy="53.168" r="9" fill="black"/>
<circle cx="465.469" cy="112.168" r="9" fill="black"/>
<path d="M116.192 129.863C154.492 102.099 156.638 63.2257 154.958 45.8038C167.748 55.6994 191.589 81.8387 184.775 107.268C174.349 146.18 133.532 139.874 109.305 134.726C111.502 133.275 113.666 131.695 116.192 129.863Z" fill="url(#paint0_linear_46589_27732)"/>
<path d="M184.776 107.268C174.35 146.18 133.533 139.873 109.306 134.726C129.344 130.624 171.593 113.177 180.276 76.2009C185.109 85.8517 187.629 96.6221 184.776 107.268Z" fill="url(#paint1_linear_46589_27732)"/>
<path d="M132.044 97.3413C117.475 52.3366 81.1667 38.283 64.0785 34.497C77.442 25.3913 109.669 10.7947 131.748 25.1331C165.534 47.0737 146.923 83.9441 134.54 105.395C133.84 102.856 133.005 100.311 132.044 97.3413Z" fill="url(#paint2_linear_46589_27732)"/>
<path d="M131.749 25.1323C165.535 47.073 146.924 83.9433 134.541 105.394C136.833 85.0685 133.295 39.4966 100.812 19.8121C111.484 18.1982 122.506 19.1296 131.749 25.1323Z" fill="url(#paint3_linear_46589_27732)"/>
<path d="M105.866 73.0482C58.5614 72.9971 33.976 103.185 25.0947 118.267C20.5642 102.744 16.6407 67.5835 37.1002 51.0157C68.4073 25.6637 97.722 54.7575 114.296 73.1625C111.665 73.0444 108.987 73.0515 105.866 73.0482Z" fill="url(#paint4_linear_46589_27732)"/>
<path d="M37.0994 51.0153C68.4066 25.6633 97.7212 54.7571 114.296 73.162C95.673 64.7017 51.2384 53.9837 22.4794 78.7943C24.2423 68.146 28.5341 57.9513 37.0994 51.0153Z" fill="url(#paint5_linear_46589_27732)"/>
<path d="M81.1992 124.967C119.439 152.813 157.073 142.841 173.123 135.86C167.664 151.082 150.172 181.833 123.881 183.211C83.6518 185.319 77.0366 144.551 74.4459 119.919C76.5048 121.561 78.6763 123.13 81.1992 124.967Z" fill="url(#paint6_linear_46589_27732)"/>
<path d="M123.881 183.212C83.652 185.32 77.0368 144.552 74.4461 119.92C84.5391 137.71 114.188 172.5 152.037 169.331C144.352 176.91 134.888 182.635 123.881 183.212Z" fill="url(#paint7_linear_46589_27732)"/>
<path d="M74.0679 90.2104C59.4016 135.184 80.5149 167.895 92.1142 181.002C75.9507 180.514 41.2987 173.38 31.8642 148.802C17.4274 111.193 54.156 92.3034 76.7818 82.2278C75.8566 84.6933 75.0356 87.2433 74.0679 90.2104Z" fill="url(#paint8_linear_46589_27732)"/>
<path d="M31.863 148.802C17.4262 111.193 54.1548 92.3039 76.7807 82.2283C62.9798 97.3249 39.0553 136.273 53.7646 171.291C44.1822 166.324 35.8127 159.092 31.863 148.802Z" fill="url(#paint9_linear_46589_27732)"/>
<circle cx="164.894" cy="30.8136" r="8.328" fill="#915EA0"/>
<circle cx="179.052" cy="10.8264" r="7.4952" fill="#7ABD60"/>
<circle cx="140.743" cy="19.1544" r="4.9968" fill="#3AB2DD"/>
<circle cx="152.402" cy="4.9968" r="4.9968" fill="#925EA0"/>
<circle cx="179.051" cy="49.1352" r="4.9968" fill="#EF4F91"/>
<circle cx="194.042" cy="30.8136" r="3.3312" fill="#F28046"/>
<circle cx="14.1574" cy="123.254" r="3.3312" fill="#48AC66"/>
<circle cx="9.161" cy="109.93" r="8.328" fill="#ED6A99"/>
<defs>
<linearGradient id="paint0_linear_46589_27732" x1="162.396" y1="45.8039" x2="111.595" y2="132.831" gradientUnits="userSpaceOnUse">
<stop stop-color="#915EA0"/>
<stop offset="1" stop-color="#70499A"/>
</linearGradient>
<linearGradient id="paint1_linear_46589_27732" x1="179.885" y1="75.7847" x2="149.642" y2="148.976" gradientUnits="userSpaceOnUse">
<stop stop-color="#734D99"/>
<stop offset="1" stop-color="#52349C"/>
</linearGradient>
<linearGradient id="paint2_linear_46589_27732" x1="75.3687" y1="29.1479" x2="135.33" y2="103.267" gradientUnits="userSpaceOnUse">
<stop stop-color="#4C8ECB"/>
<stop offset="1" stop-color="#664C9B"/>
</linearGradient>
<linearGradient id="paint3_linear_46589_27732" x1="132.233" y1="24.0269" x2="135.747" y2="101.185" gradientUnits="userSpaceOnUse">
<stop stop-color="#2EB7E5"/>
<stop offset="1" stop-color="#5C6DB2"/>
</linearGradient>
<linearGradient id="paint4_linear_46589_27732" x1="109.93" y1="72.8699" x2="20.8204" y2="89.1095" gradientUnits="userSpaceOnUse">
<stop stop-color="#27A47F"/>
<stop offset="1" stop-color="#73BA52"/>
</linearGradient>
<linearGradient id="paint5_linear_46589_27732" x1="107.848" y1="68.2895" x2="36.6436" y2="53.2991" gradientUnits="userSpaceOnUse">
<stop stop-color="#64AB83"/>
<stop offset="1" stop-color="#91C549"/>
</linearGradient>
<linearGradient id="paint6_linear_46589_27732" x1="76.6173" y1="120.756" x2="161.563" y2="160.73" gradientUnits="userSpaceOnUse">
<stop stop-color="#EE5993"/>
<stop offset="1" stop-color="#F086AC"/>
</linearGradient>
<linearGradient id="paint7_linear_46589_27732" x1="77.0334" y1="123.671" x2="124.14" y2="184.39" gradientUnits="userSpaceOnUse">
<stop stop-color="#EF3781"/>
<stop offset="1" stop-color="#F36068"/>
</linearGradient>
<linearGradient id="paint8_linear_46589_27732" x1="74.9518" y1="87.0275" x2="70.7878" y2="180.301" gradientUnits="userSpaceOnUse">
<stop stop-color="#F4704A"/>
<stop offset="1" stop-color="#F9A63E"/>
</linearGradient>
<linearGradient id="paint9_linear_46589_27732" x1="61.6266" y1="85.3619" x2="34.5607" y2="150.737" gradientUnits="userSpaceOnUse">
<stop stop-color="#E65969"/>
<stop offset="1" stop-color="#F57A51"/>
</linearGradient>
</defs>
</svg>
